<svg xmlns="http://www.w3.org/2000/svg" viewBox="0 0 512 512" fill="#dc2626">
  <title>Red Maple Leaf</title>
  <path d="M256 32s-12 34-76 80c0 0 18 8 24 24 6 16-8 40-8 40s48-14 60-4c12 10-4 34-4 34s36-8 44 2c8 10-8 36-8 36s40-6 54 6c14 12 0 40 0 40s36-6 48 6c12 12 0 40 0 40s6 0 10 4c4 4 10 10 10 10s-24 34-40 44c-16 10-36 8-36 8s-10 48-20 56c-10 8-36 0-36 0s-8 36-20 44c-12 8-40 0-40 0s-28 8-40 0c-12-8-20-44-20-44s-26 8-36 0c-10-8-20-56-20-56s-20 2-36-8c-16-10-40-44-40-44s6-6 10-10c4-4 10-4 10-4s12-28 0-40c-12-12-48-6-48-6s14-28 0-40c-14-12-54-6-54-6s18-26 0-36c-18-10-60 4-60 4s14-24 8-40c-6-16-24-24-24-24C68 66 56 32 56 32s56 6 96 36c0 0 18-52 104-36 0 0 66-8 120 0 0 0 28 10 48 20 0 0-36-40-168-36z"/>
</svg>